<svg width="182" height="129" fill="none" xmlns="http://www.w3.org/2000/svg"><path d="M0 83.105c0-13.148 4.742-27.101 14.226-41.86C23.84 26.36 41.118 12.778 66.062.5l4.677 8.372c-12.472 8.434-21.696 15.504-27.672 21.21-10.523 10.294-15.785 20.154-15.785 29.58 0 3.226.975 5.334 2.923 6.326 1.95 1.117 3.638 1.675 5.067 1.675 4.937-.62 8.185-.93 9.744-.93 8.315 0 15.135 2.914 20.462 8.744 5.326 5.705 7.99 12.65 7.99 20.837 0 9.178-2.924 16.868-8.77 23.07-5.846 6.077-13.9 9.116-24.164 9.116-12.082 0-21.891-4.093-29.426-12.279C3.703 107.911 0 96.872 0 83.105Zm107.57 0c0-13.892 5.067-28.217 15.201-42.977 10.133-14.76 27.087-27.97 50.862-39.628l4.677 8.372c-11.693 7.814-20.657 14.698-26.893 20.651-11.043 10.543-16.564 20.341-16.564 29.396 0 2.604.714 4.713 2.143 6.325 1.429 1.613 3.378 2.419 5.846 2.419 4.937-.62 8.185-.93 9.744-.93 8.185 0 14.941 2.852 20.267 8.558 5.457 5.705 8.185 12.713 8.185 21.023 0 9.674-2.988 17.488-8.964 23.442-5.977 5.829-14.096 8.744-24.36 8.744-11.692 0-21.306-4.093-28.841-12.279-7.535-8.31-11.303-19.349-11.303-33.116Z" fill="#FEF2DE"/></svg>