<svg width="22" height="16" fill="none" xmlns="http://www.w3.org/2000/svg"><g fill-rule="evenodd" clip-rule="evenodd"><path d="M0 0h30.4v1.231H0V0Zm0 2.462h30.4v1.232H0V2.462Zm0 2.46h30.4v1.234H0V4.922Zm0 2.462h30.4v1.232H0V7.384Zm0 2.463h30.4v1.231H0V9.847Zm0 2.46h30.4v1.23H0v-1.23Zm0 2.462h30.4V16H0v-1.231Z" fill="#BD3D44"/><path d="M0 1.231h30.4v1.231H0v-1.23Zm0 2.463h30.4v1.228H0V3.694Zm0 2.46h30.4v1.23H0v-1.23Zm0 2.462h30.4v1.23H0v-1.23Zm0 2.462h30.4v1.231H0v-1.23Zm0 2.46h30.4v1.23H0v-1.23Z" fill="#fff"/><path d="M0 0h12.16v8.616H0V0Z" fill="#192F5D"/><path d="m1.012.369.113.34h.356l-.287.21.11.343-.292-.212-.287.21.11-.341-.291-.21h.362l.106-.34Zm2.029 0 .109.34h.36l-.291.21.11.343-.288-.212-.291.21.11-.341-.288-.21h.356l.113-.34Zm2.025 0 .112.34h.353l-.287.21.11.343-.292-.212-.287.21.11-.341-.291-.21h.36l.112-.34Zm2.028 0 .11.34h.359l-.291.21.112.343-.29-.212-.29.21.112-.341-.291-.21h.356l.113-.34Zm2.025 0 .112.34h.357L9.3.92l.11.343-.291-.212-.288.21.11-.341-.288-.21h.356l.11-.34Zm2.028 0 .11.34h.359l-.291.21.113.343-.291-.212-.29.21.112-.341-.29-.21h.358l.11-.34Zm-9.119.862.11.34h.359l-.29.21.106.34-.282-.209-.29.21.103-.34-.282-.21h.357l.11-.34Zm2.025 0 .113.34h.356l-.29.21.112.34-.29-.209-.292.21.113-.34-.29-.21h.359l.11-.34Zm2.028 0 .11.34h.359l-.29.21.109.34-.288-.209-.29.21.109-.34-.288-.21h.357l.112-.34Zm2.025 0 .113.34h.356l-.29.21.112.34-.29-.209-.288.21.11-.34-.292-.21H8l.106-.34Zm2.028 0 .11.34h.36l-.291.21.109.34-.288-.209-.29.21.11-.34-.288-.21h.356l.112-.34Zm-9.122.86.113.347h.356l-.287.209.11.34-.292-.212-.287.213.11-.344-.291-.21h.362l.106-.343Zm2.029 0 .109.343h.36l-.291.21.11.34-.288-.212-.291.212.11-.343-.288-.21h.356l.113-.34Zm2.025 0 .112.343h.353l-.287.21.11.34-.292-.212-.287.212.11-.343-.291-.21h.36l.112-.34Zm2.028 0 .11.343h.359l-.291.21.112.34-.29-.212-.29.212.112-.343-.291-.21h.356l.113-.34Zm2.025 0 .112.343h.357l-.288.21.11.34-.291-.212-.288.212.11-.343-.288-.21h.356l.11-.34Zm2.028 0 .11.343h.359l-.291.21.113.34-.291-.212-.29.212.112-.343-.29-.21h.358l.11-.34Zm-9.119.862.11.34h.359l-.29.21.109.344-.288-.213-.29.21.109-.34-.288-.21h.357l.112-.34Zm2.025 0 .113.34h.356l-.29.21.112.344-.29-.213-.292.21.113-.34-.29-.21h.359l.11-.34Zm2.028 0 .11.34h.359l-.29.21.109.344-.288-.213-.29.21.109-.34-.288-.21h.357l.112-.34Zm2.025 0 .113.34h.356l-.287.21.109.344-.29-.213-.288.21.11-.34-.292-.21H8l.106-.34Zm2.028 0 .11.34h.36l-.291.21.109.344-.288-.213-.29.21.11-.34-.288-.21h.356l.112-.34Zm-9.122.863.113.34h.356l-.287.21.11.343-.292-.212-.287.21.11-.341-.291-.21h.362l.106-.34Zm2.029 0 .109.34h.36l-.291.21.11.34-.288-.21-.291.21.11-.34-.288-.21h.356l.113-.34Zm2.025 0 .112.34h.353l-.287.21.11.343-.292-.212-.287.21.11-.341-.291-.21h.36l.112-.34Zm2.028 0 .11.34h.359l-.291.21.112.343-.29-.212-.29.21.112-.341-.291-.21h.356l.113-.34Zm2.025 0 .112.34h.357l-.288.21.11.343-.291-.212-.288.21.11-.341-.288-.21h.356l.11-.34Zm2.028 0 .11.34h.359l-.291.21.113.343-.291-.212-.29.21.112-.341-.29-.21h.358l.11-.34Zm-9.119.862.11.34h.359l-.29.21.109.34-.288-.212-.29.213.109-.344-.288-.21h.357l.112-.337Zm2.025 0 .113.34h.356l-.29.21.112.34-.29-.212-.292.213.113-.344-.29-.21h.359l.11-.337Zm2.028 0 .11.34h.359l-.29.21.109.34-.288-.212-.29.213.109-.344-.288-.21h.357l.112-.337Zm2.025 0 .113.34h.356l-.287.21.109.34-.29-.212-.288.213.11-.344-.292-.21H8l.106-.337Zm2.028 0 .11.34h.36l-.291.21.109.34-.288-.212-.29.213.11-.344-.288-.21h.356l.112-.337Zm-9.122.86.113.343h.356l-.287.21.11.337-.292-.21-.287.21.11-.34-.291-.21h.362l.106-.34Zm2.029 0 .109.343h.36l-.291.21.112.337-.29-.21-.291.21.112-.34-.29-.21h.356l.113-.34Zm2.025 0 .112.343h.353l-.287.21.11.337-.292-.21-.287.21.11-.34-.291-.21h.36l.112-.34Zm2.028 0 .11.343h.359l-.291.21.112.337-.29-.21-.29.21.112-.34-.291-.21h.356l.113-.34Zm2.025 0 .112.343h.357l-.288.21.11.337-.291-.21-.288.21.11-.34-.288-.21h.356l.11-.34Zm2.028 0 .11.343h.359l-.291.21.113.337-.291-.21-.29.21.112-.34-.29-.21h.358l.11-.34ZM2.028 6.4l.11.34h.359l-.29.21.109.344-.288-.213-.29.21.109-.341-.288-.21h.357l.112-.34Zm2.025 0 .113.34h.356l-.29.21.112.344-.29-.213-.292.21.113-.341-.29-.21h.359l.11-.34Zm2.028 0 .11.34h.359l-.29.21.109.344-.288-.213-.29.21.109-.341-.288-.21h.357l.112-.34Zm2.025 0 .113.34h.356l-.287.21.109.344-.29-.213-.288.21.11-.341-.292-.21H8l.106-.34Zm2.028 0 .11.34h.36l-.291.21.109.344-.288-.213-.29.21.11-.341-.288-.21h.356l.112-.34Zm-9.122.862.113.341h.356l-.287.21.11.34-.292-.21-.287.21.11-.344L.543 7.6h.362l.106-.337Zm2.029 0 .109.341h.36l-.291.21.112.34-.29-.21-.291.21.112-.344-.29-.209h.356l.113-.337Zm2.025 0 .112.341h.353l-.281.21.11.34-.291-.21-.288.21.11-.344L4.6 7.6h.36l.106-.337Zm2.028 0 .11.341h.359l-.291.21.112.34-.29-.21-.29.21.112-.344-.291-.209h.356l.113-.337Zm2.025 0 .112.341h.357l-.288.21.11.34-.291-.21-.288.21.11-.344-.288-.209h.356l.11-.337Zm2.028 0 .11.341h.359l-.291.21.113.34-.291-.21-.29.21.112-.344-.29-.209h.358l.11-.337Z" fill="#fff"/></g></svg>